<?xml version="1.0" standalone="no"?>
<!DOCTYPE svg PUBLIC "-//W3C//DTD SVG 20010904//EN"
 "http://www.w3.org/TR/2001/REC-SVG-20010904/DTD/svg10.dtd">
<svg version="1.0" xmlns="http://www.w3.org/2000/svg"
 width="1280.000000pt" height="1280.000000pt" viewBox="0 0 1280.000000 1280.000000"
 preserveAspectRatio="xMidYMid meet">
<metadata>
Created by potrace 1.15, written by Peter Selinger 2001-2017
</metadata>
<g transform="translate(0.000000,1280.000000) scale(0.100000,-0.100000)"
fill="#000000" stroke="none">
<path d="M1210 10585 c-163 -27 -349 -118 -488 -236 -151 -128 -251 -270 -315
-445 l-32 -89 -3 -2840 c-2 -2036 0 -2857 8 -2900 49 -264 251 -526 520 -673
100 -54 167 -80 275 -105 l90 -22 3054 -5 3054 -5 28 -70 c189 -467 598 -811
1116 -939 141 -35 188 -42 438 -71 121 -14 369 -43 550 -64 182 -21 331 -37
333 -36 1 1 -118 70 -265 152 -148 83 -338 190 -423 238 -85 48 -243 135 -350
192 -200 107 -249 142 -280 203 -36 70 -79 272 -80 373 l0 27 1490 0 c1604 0
1578 -1 1747 51 135 42 306 144 417 248 59 55 151 174 192 247 49 88 72 151
92 253 16 80 17 286 12 2916 l-5 2830 -24 70 c-53 158 -135 286 -259 407 -48
46 -114 103 -147 125 -129 86 -296 153 -430 173 -114 16 -10219 12 -10315 -5z
m10348 -417 c210 -76 386 -256 424 -434 10 -47 12 -609 8 -2839 l-5 -2780 -32
-65 c-74 -150 -219 -278 -390 -343 l-58 -22 -1742 -3 -1743 -2 0 -53 c1 -198
35 -629 56 -694 11 -34 -136 128 -193 215 -81 120 -138 255 -171 403 l-27 124
-3210 5 -3210 5 -65 22 c-170 59 -317 189 -393 350 l-32 68 0 2815 0 2815 26
55 c92 191 290 347 482 379 29 5 2310 8 5127 7 l5075 -1 73 -27z"/>
</g>
</svg>
