<?xml version="1.0" encoding="UTF-8" standalone="no"?>
<!-- Created with Inkscape (http://www.inkscape.org/) -->

<svg
   width="21.975925mm"
   height="18.753019mm"
   viewBox="0 0 21.975926 18.753019"
   version="1.1"
   id="svg5"
   xmlns="http://www.w3.org/2000/svg"
   xmlns:svg="http://www.w3.org/2000/svg">
  <defs
     id="defs2" />
  <g
     id="layer1"
     transform="translate(-47.655181,-152.09409)">
    <g
       id="g914"
       transform="matrix(0.04292173,0,0,0.04292173,47.655181,150.48264)">
      <path
         style="fill:#414752"
         d="m 110.192,367.16 h 184.4 l 133.92,107.296 V 363.816 C 476.992,351.736 512,308.008 512,256.808 V 147.88 C 512,87.032 462.56,37.544 401.808,37.544 H 110.192 C 49.44,37.528 0,87.032 0,147.88 V 256.824 C 0,317.656 49.44,367.16 110.192,367.16 Z M 32,147.88 c 0,-43.2 35.072,-78.336 78.192,-78.336 H 401.808 C 444.912,69.528 480,104.664 480,147.88 v 108.944 c 0,39.792 -29.792,73.232 -69.296,77.776 l -14.176,1.632 v 71.584 l -90.672,-72.64 H 110.192 C 67.088,335.16 32,300.008 32,256.808 Z"
         id="path861" />
      <g
         id="g863">
</g>
      <g
         id="g865">
</g>
      <g
         id="g867">
</g>
      <g
         id="g869">
</g>
      <g
         id="g871">
</g>
      <g
         id="g873">
</g>
      <g
         id="g875">
</g>
      <g
         id="g877">
</g>
      <g
         id="g879">
</g>
      <g
         id="g881">
</g>
      <g
         id="g883">
</g>
      <g
         id="g885">
</g>
      <g
         id="g887">
</g>
      <g
         id="g889">
</g>
      <g
         id="g891">
</g>
    </g>
  </g>
</svg>
